<?xml version="1.0" encoding="UTF-8"?>
<svg xmlns="http://www.w3.org/2000/svg" xmlns:xlink="http://www.w3.org/1999/xlink" width="16px" height="16px" viewBox="0 0 16 16" version="1.1">
<g id="surface1">
<path style=" stroke:none;fill-rule:nonzero;fill:rgb(0%,0%,0%);fill-opacity:1;" d="M 12.441406 9.296875 L 12.441406 12.0625 C 12.441406 12.75 12.195312 13.335938 11.710938 13.824219 C 11.222656 14.3125 10.636719 14.554688 9.949219 14.554688 L 2.753906 14.554688 C 2.066406 14.554688 1.480469 14.3125 0.992188 13.824219 C 0.507812 13.335938 0.261719 12.75 0.261719 12.0625 L 0.261719 4.867188 C 0.261719 4.183594 0.507812 3.597656 0.992188 3.109375 C 1.480469 2.621094 2.066406 2.378906 2.753906 2.378906 L 8.84375 2.378906 C 8.921875 2.378906 8.988281 2.402344 9.042969 2.457031 C 9.09375 2.507812 9.117188 2.574219 9.117188 2.65625 L 9.117188 3.207031 C 9.117188 3.289062 9.09375 3.355469 9.042969 3.40625 C 8.988281 3.460938 8.921875 3.484375 8.84375 3.484375 L 2.753906 3.484375 C 2.371094 3.484375 2.046875 3.621094 1.777344 3.890625 C 1.503906 4.164062 1.371094 4.488281 1.371094 4.867188 L 1.371094 12.0625 C 1.371094 12.445312 1.503906 12.769531 1.777344 13.042969 C 2.046875 13.3125 2.371094 13.449219 2.753906 13.449219 L 9.949219 13.449219 C 10.328125 13.449219 10.65625 13.3125 10.925781 13.042969 C 11.199219 12.769531 11.332031 12.445312 11.332031 12.0625 L 11.332031 9.296875 C 11.332031 9.214844 11.359375 9.148438 11.410156 9.097656 C 11.460938 9.046875 11.527344 9.019531 11.609375 9.019531 L 12.164062 9.019531 C 12.242188 9.019531 12.308594 9.046875 12.363281 9.097656 C 12.414062 9.148438 12.441406 9.214844 12.441406 9.296875 Z M 15.761719 1.824219 L 15.761719 6.253906 C 15.761719 6.402344 15.707031 6.53125 15.597656 6.640625 C 15.488281 6.75 15.359375 6.804688 15.207031 6.804688 C 15.058594 6.804688 14.929688 6.75 14.820312 6.640625 L 13.296875 5.121094 L 7.65625 10.757812 C 7.601562 10.816406 7.535156 10.84375 7.457031 10.84375 C 7.382812 10.84375 7.316406 10.816406 7.257812 10.757812 L 6.273438 9.773438 C 6.214844 9.714844 6.1875 9.648438 6.1875 9.574219 C 6.1875 9.5 6.214844 9.433594 6.273438 9.375 L 11.914062 3.734375 L 10.390625 2.214844 C 10.28125 2.105469 10.226562 1.972656 10.226562 1.824219 C 10.226562 1.675781 10.28125 1.542969 10.390625 1.433594 C 10.5 1.324219 10.628906 1.269531 10.78125 1.269531 L 15.207031 1.269531 C 15.359375 1.269531 15.488281 1.324219 15.597656 1.433594 C 15.707031 1.542969 15.761719 1.675781 15.761719 1.824219 Z M 15.761719 1.824219 "/>
</g>
</svg>
